<?xml version="1.0" encoding="UTF-8"?>
<svg xmlns="http://www.w3.org/2000/svg" xmlns:xlink="http://www.w3.org/1999/xlink" width="1587pt" height="1587pt" viewBox="0 0 1587 1587" version="1.1">
<defs>
<linearGradient id="linear0" gradientUnits="userSpaceOnUse" x1="0.00639" y1="0" x2="0.99361" y2="1" gradientTransform="matrix(1290.979044,521.753723,-534.652252,1323.727682,445.369807,-129.240703)">
<stop offset="0" style="stop-color:rgb(100%,56.078431%,44.313725%);stop-opacity:1;"/>
<stop offset="1" style="stop-color:rgb(100%,24.313725%,33.333333%);stop-opacity:1;"/>
</linearGradient>
</defs>
<g id="surface1">
<path style=" stroke:none;fill-rule:evenodd;fill:url(#linear0);" d="M 1175.558594 985.4375 L 1027.933594 1350.9375 L 663.308594 1203.574219 L 792.210938 884.433594 C 802.550781 858.828125 831.683594 846.457031 857.277344 856.804688 Z M 568.457031 739.441406 C 669.144531 780.136719 717.789062 894.773438 677.109375 995.496094 L 676.800781 996.257812 C 636.121094 1096.976562 521.519531 1145.636719 420.832031 1104.945312 C 320.140625 1064.25 271.496094 949.613281 312.175781 848.894531 L 312.484375 848.128906 C 353.167969 747.410156 467.769531 698.75 568.457031 739.441406 Z M 923.691406 383.425781 L 794.789062 702.566406 C 784.449219 728.171875 755.316406 740.539062 729.722656 730.195312 L 411.441406 601.5625 L 559.066406 236.0625 Z M 1349.242188 555.414062 L 1201.617188 920.914062 L 883.339844 792.28125 C 857.742188 781.9375 845.378906 752.796875 855.71875 727.191406 L 984.621094 408.050781 Z M 1349.242188 555.414062 "/>
</g>
</svg>
